<mxfile host="app.diagrams.net" agent="Mozilla/5.0 (Windows NT 10.0; Win64; x64) AppleWebKit/537.36 (KHTML, like Gecko) Chrome/132.0.0.0 Safari/537.36 OPR/117.0.0.0 (Edition Yx GX)" version="26.1.3">
  <diagram name="Страница — 1" id="QxelW2nZCiGpbFqcisNR">
    <mxGraphModel dx="517" dy="792" grid="1" gridSize="10" guides="1" tooltips="1" connect="1" arrows="1" fold="1" page="1" pageScale="1" pageWidth="827" pageHeight="1169" math="0" shadow="0">
      <root>
        <mxCell id="0" />
        <mxCell id="1" parent="0" />
        <mxCell id="VgGuqZ8zbPnfGzRsNumL-1" value="телекоммуникационные услуги" style="rounded=0;whiteSpace=wrap;html=1;" parent="1" vertex="1">
          <mxGeometry x="280" y="300" width="160" height="140" as="geometry" />
        </mxCell>
        <mxCell id="XyYknOsjrT319ukOHQHh-1" value="" style="rounded=0;whiteSpace=wrap;html=1;" vertex="1" parent="1">
          <mxGeometry x="2520" y="1080" width="120" height="60" as="geometry" />
        </mxCell>
        <mxCell id="XyYknOsjrT319ukOHQHh-2" value="" style="rounded=0;whiteSpace=wrap;html=1;" vertex="1" parent="1">
          <mxGeometry x="2520" y="1400" width="120" height="60" as="geometry" />
        </mxCell>
        <mxCell id="XyYknOsjrT319ukOHQHh-3" value="" style="rounded=0;whiteSpace=wrap;html=1;" vertex="1" parent="1">
          <mxGeometry x="780" y="850" width="140" height="60" as="geometry" />
        </mxCell>
        <mxCell id="XyYknOsjrT319ukOHQHh-4" value="Телекоммуникационные услуги" style="text;html=1;align=center;verticalAlign=middle;whiteSpace=wrap;rounded=0;" vertex="1" parent="1">
          <mxGeometry x="780" y="850" width="140" height="60" as="geometry" />
        </mxCell>
        <mxCell id="XyYknOsjrT319ukOHQHh-5" value="" style="endArrow=classic;html=1;rounded=0;entryX=0;entryY=0.5;entryDx=0;entryDy=0;" edge="1" parent="1">
          <mxGeometry width="50" height="50" relative="1" as="geometry">
            <mxPoint x="640" y="870" as="sourcePoint" />
            <mxPoint x="780" y="870.3399999999999" as="targetPoint" />
          </mxGeometry>
        </mxCell>
        <mxCell id="XyYknOsjrT319ukOHQHh-6" value="Заявка" style="text;html=1;align=center;verticalAlign=middle;whiteSpace=wrap;rounded=0;" vertex="1" parent="1">
          <mxGeometry x="680" y="840" width="60" height="30" as="geometry" />
        </mxCell>
        <mxCell id="XyYknOsjrT319ukOHQHh-7" value="" style="endArrow=classic;html=1;rounded=0;entryX=0;entryY=0.5;entryDx=0;entryDy=0;" edge="1" parent="1">
          <mxGeometry width="50" height="50" relative="1" as="geometry">
            <mxPoint x="640" y="890" as="sourcePoint" />
            <mxPoint x="780" y="890.3399999999999" as="targetPoint" />
          </mxGeometry>
        </mxCell>
        <mxCell id="XyYknOsjrT319ukOHQHh-8" value="место проведения" style="text;html=1;align=center;verticalAlign=middle;whiteSpace=wrap;rounded=0;" vertex="1" parent="1">
          <mxGeometry x="680" y="890" width="60" height="30" as="geometry" />
        </mxCell>
        <mxCell id="XyYknOsjrT319ukOHQHh-9" value="" style="endArrow=classic;html=1;rounded=0;" edge="1" parent="1" source="XyYknOsjrT319ukOHQHh-4">
          <mxGeometry width="50" height="50" relative="1" as="geometry">
            <mxPoint x="800" y="900" as="sourcePoint" />
            <mxPoint x="850" y="850" as="targetPoint" />
          </mxGeometry>
        </mxCell>
        <mxCell id="XyYknOsjrT319ukOHQHh-10" value="" style="endArrow=classic;html=1;rounded=0;" edge="1" parent="1">
          <mxGeometry width="50" height="50" relative="1" as="geometry">
            <mxPoint x="840.0699999999999" y="750" as="sourcePoint" />
            <mxPoint x="839.8299999999999" y="840" as="targetPoint" />
          </mxGeometry>
        </mxCell>
        <mxCell id="XyYknOsjrT319ukOHQHh-11" value="договор" style="edgeLabel;html=1;align=center;verticalAlign=middle;resizable=0;points=[];" vertex="1" connectable="0" parent="XyYknOsjrT319ukOHQHh-10">
          <mxGeometry x="-0.1524" relative="1" as="geometry">
            <mxPoint as="offset" />
          </mxGeometry>
        </mxCell>
        <mxCell id="XyYknOsjrT319ukOHQHh-12" value="" style="endArrow=classic;html=1;rounded=0;" edge="1" parent="1">
          <mxGeometry width="50" height="50" relative="1" as="geometry">
            <mxPoint x="790" y="980" as="sourcePoint" />
            <mxPoint x="790" y="920" as="targetPoint" />
            <Array as="points" />
          </mxGeometry>
        </mxCell>
        <mxCell id="XyYknOsjrT319ukOHQHh-13" value="оборудование" style="edgeLabel;html=1;align=center;verticalAlign=middle;resizable=0;points=[];" vertex="1" connectable="0" parent="XyYknOsjrT319ukOHQHh-12">
          <mxGeometry x="-0.0074" y="-1" relative="1" as="geometry">
            <mxPoint x="-11" y="10" as="offset" />
          </mxGeometry>
        </mxCell>
        <mxCell id="XyYknOsjrT319ukOHQHh-14" value="" style="endArrow=classic;html=1;rounded=0;" edge="1" parent="1">
          <mxGeometry width="50" height="50" relative="1" as="geometry">
            <mxPoint x="839.8299999999999" y="980" as="sourcePoint" />
            <mxPoint x="839.8299999999999" y="920" as="targetPoint" />
            <Array as="points">
              <mxPoint x="839.8299999999999" y="950" />
            </Array>
          </mxGeometry>
        </mxCell>
        <mxCell id="XyYknOsjrT319ukOHQHh-15" value="бухгалтерия" style="edgeLabel;html=1;align=center;verticalAlign=middle;resizable=0;points=[];" vertex="1" connectable="0" parent="XyYknOsjrT319ukOHQHh-14">
          <mxGeometry x="-0.1271" relative="1" as="geometry">
            <mxPoint y="-14" as="offset" />
          </mxGeometry>
        </mxCell>
        <mxCell id="XyYknOsjrT319ukOHQHh-16" value="" style="endArrow=classic;html=1;rounded=0;" edge="1" parent="1">
          <mxGeometry width="50" height="50" relative="1" as="geometry">
            <mxPoint x="890" y="980" as="sourcePoint" />
            <mxPoint x="890" y="920" as="targetPoint" />
            <Array as="points">
              <mxPoint x="890" y="950" />
            </Array>
          </mxGeometry>
        </mxCell>
        <mxCell id="XyYknOsjrT319ukOHQHh-17" value="персонал" style="edgeLabel;html=1;align=center;verticalAlign=middle;resizable=0;points=[];" vertex="1" connectable="0" parent="XyYknOsjrT319ukOHQHh-16">
          <mxGeometry x="-0.2204" y="1" relative="1" as="geometry">
            <mxPoint as="offset" />
          </mxGeometry>
        </mxCell>
        <mxCell id="XyYknOsjrT319ukOHQHh-18" value="" style="endArrow=classic;html=1;rounded=0;" edge="1" parent="1">
          <mxGeometry width="50" height="50" relative="1" as="geometry">
            <mxPoint x="930" y="880" as="sourcePoint" />
            <mxPoint x="1020" y="880" as="targetPoint" />
          </mxGeometry>
        </mxCell>
        <mxCell id="XyYknOsjrT319ukOHQHh-19" value="довольная ца" style="edgeLabel;html=1;align=center;verticalAlign=middle;resizable=0;points=[];" vertex="1" connectable="0" parent="XyYknOsjrT319ukOHQHh-18">
          <mxGeometry x="-0.2278" relative="1" as="geometry">
            <mxPoint as="offset" />
          </mxGeometry>
        </mxCell>
        <mxCell id="XyYknOsjrT319ukOHQHh-20" value="A0" style="text;html=1;align=center;verticalAlign=middle;whiteSpace=wrap;rounded=0;" vertex="1" parent="1">
          <mxGeometry x="870" y="890" width="30" height="20" as="geometry" />
        </mxCell>
        <mxCell id="XyYknOsjrT319ukOHQHh-21" style="edgeStyle=orthogonalEdgeStyle;rounded=0;orthogonalLoop=1;jettySize=auto;html=1;" edge="1" parent="1" source="XyYknOsjrT319ukOHQHh-23">
          <mxGeometry relative="1" as="geometry">
            <mxPoint x="1160" y="1220" as="targetPoint" />
          </mxGeometry>
        </mxCell>
        <mxCell id="XyYknOsjrT319ukOHQHh-22" value="маркетинговая информация" style="edgeLabel;html=1;align=center;verticalAlign=middle;resizable=0;points=[];" vertex="1" connectable="0" parent="XyYknOsjrT319ukOHQHh-21">
          <mxGeometry x="0.3205" y="-1" relative="1" as="geometry">
            <mxPoint y="-1" as="offset" />
          </mxGeometry>
        </mxCell>
        <mxCell id="XyYknOsjrT319ukOHQHh-23" value="Маркетинг" style="rounded=0;whiteSpace=wrap;html=1;" vertex="1" parent="1">
          <mxGeometry x="580" y="1190" width="120" height="60" as="geometry" />
        </mxCell>
        <mxCell id="XyYknOsjrT319ukOHQHh-24" style="edgeStyle=orthogonalEdgeStyle;rounded=0;orthogonalLoop=1;jettySize=auto;html=1;entryX=0;entryY=0.5;entryDx=0;entryDy=0;" edge="1" parent="1" source="XyYknOsjrT319ukOHQHh-26" target="XyYknOsjrT319ukOHQHh-29">
          <mxGeometry relative="1" as="geometry">
            <mxPoint x="970" y="1330" as="targetPoint" />
          </mxGeometry>
        </mxCell>
        <mxCell id="XyYknOsjrT319ukOHQHh-25" value="оформленные мероприятия" style="edgeLabel;html=1;align=center;verticalAlign=middle;resizable=0;points=[];" vertex="1" connectable="0" parent="XyYknOsjrT319ukOHQHh-24">
          <mxGeometry x="-0.1666" y="3" relative="1" as="geometry">
            <mxPoint y="11" as="offset" />
          </mxGeometry>
        </mxCell>
        <mxCell id="XyYknOsjrT319ukOHQHh-26" value="Оформление&lt;div&gt;мероприятия&amp;nbsp;&lt;/div&gt;" style="rounded=0;whiteSpace=wrap;html=1;" vertex="1" parent="1">
          <mxGeometry x="740" y="1300" width="120" height="60" as="geometry" />
        </mxCell>
        <mxCell id="XyYknOsjrT319ukOHQHh-27" style="edgeStyle=orthogonalEdgeStyle;rounded=0;orthogonalLoop=1;jettySize=auto;html=1;" edge="1" parent="1" source="XyYknOsjrT319ukOHQHh-29">
          <mxGeometry relative="1" as="geometry">
            <mxPoint x="1260" y="1420" as="targetPoint" />
          </mxGeometry>
        </mxCell>
        <mxCell id="XyYknOsjrT319ukOHQHh-28" value="проведенные мероприятия" style="edgeLabel;html=1;align=center;verticalAlign=middle;resizable=0;points=[];" vertex="1" connectable="0" parent="XyYknOsjrT319ukOHQHh-27">
          <mxGeometry x="0.0904" y="1" relative="1" as="geometry">
            <mxPoint x="-18" y="1" as="offset" />
          </mxGeometry>
        </mxCell>
        <mxCell id="XyYknOsjrT319ukOHQHh-29" value="проведение мероприятия" style="rounded=0;whiteSpace=wrap;html=1;" vertex="1" parent="1">
          <mxGeometry x="960" y="1390" width="120" height="60" as="geometry" />
        </mxCell>
        <mxCell id="XyYknOsjrT319ukOHQHh-30" value="" style="endArrow=classic;html=1;rounded=0;" edge="1" parent="1">
          <mxGeometry width="50" height="50" relative="1" as="geometry">
            <mxPoint x="590" y="1532.1052631578948" as="sourcePoint" />
            <mxPoint x="590" y="1250" as="targetPoint" />
            <Array as="points" />
          </mxGeometry>
        </mxCell>
        <mxCell id="XyYknOsjrT319ukOHQHh-31" value="Бухгалтерская система" style="edgeLabel;html=1;align=center;verticalAlign=middle;resizable=0;points=[];" vertex="1" connectable="0" parent="XyYknOsjrT319ukOHQHh-30">
          <mxGeometry x="-0.6168" y="2" relative="1" as="geometry">
            <mxPoint y="52" as="offset" />
          </mxGeometry>
        </mxCell>
        <mxCell id="XyYknOsjrT319ukOHQHh-32" value="" style="endArrow=classic;html=1;rounded=0;" edge="1" parent="1">
          <mxGeometry width="50" height="50" relative="1" as="geometry">
            <mxPoint x="480" y="1219.74" as="sourcePoint" />
            <mxPoint x="570" y="1219.74" as="targetPoint" />
          </mxGeometry>
        </mxCell>
        <mxCell id="XyYknOsjrT319ukOHQHh-33" value="заявки" style="edgeLabel;html=1;align=center;verticalAlign=middle;resizable=0;points=[];" vertex="1" connectable="0" parent="XyYknOsjrT319ukOHQHh-32">
          <mxGeometry x="-0.3041" relative="1" as="geometry">
            <mxPoint as="offset" />
          </mxGeometry>
        </mxCell>
        <mxCell id="XyYknOsjrT319ukOHQHh-34" value="" style="endArrow=classic;html=1;rounded=0;exitX=0.75;exitY=1;exitDx=0;exitDy=0;entryX=0;entryY=0;entryDx=0;entryDy=0;" edge="1" parent="1" source="XyYknOsjrT319ukOHQHh-23" target="XyYknOsjrT319ukOHQHh-26">
          <mxGeometry width="50" height="50" relative="1" as="geometry">
            <mxPoint x="710" y="1250" as="sourcePoint" />
            <mxPoint x="710" y="1310" as="targetPoint" />
            <Array as="points">
              <mxPoint x="670" y="1300" />
              <mxPoint x="700" y="1300" />
            </Array>
          </mxGeometry>
        </mxCell>
        <mxCell id="XyYknOsjrT319ukOHQHh-35" value="офориление заявки" style="edgeLabel;html=1;align=center;verticalAlign=middle;resizable=0;points=[];" vertex="1" connectable="0" parent="XyYknOsjrT319ukOHQHh-34">
          <mxGeometry x="-0.5817" y="1" relative="1" as="geometry">
            <mxPoint x="-1" y="25" as="offset" />
          </mxGeometry>
        </mxCell>
        <mxCell id="XyYknOsjrT319ukOHQHh-36" value="" style="endArrow=classic;html=1;rounded=0;entryX=0;entryY=0.5;entryDx=0;entryDy=0;" edge="1" parent="1" target="XyYknOsjrT319ukOHQHh-26">
          <mxGeometry width="50" height="50" relative="1" as="geometry">
            <mxPoint x="460" y="1330" as="sourcePoint" />
            <mxPoint x="510" y="1160" as="targetPoint" />
          </mxGeometry>
        </mxCell>
        <mxCell id="XyYknOsjrT319ukOHQHh-37" value="оборудование" style="edgeLabel;html=1;align=center;verticalAlign=middle;resizable=0;points=[];" vertex="1" connectable="0" parent="XyYknOsjrT319ukOHQHh-36">
          <mxGeometry x="-0.6478" relative="1" as="geometry">
            <mxPoint as="offset" />
          </mxGeometry>
        </mxCell>
        <mxCell id="XyYknOsjrT319ukOHQHh-38" value="" style="endArrow=classic;html=1;rounded=0;" edge="1" parent="1">
          <mxGeometry width="50" height="50" relative="1" as="geometry">
            <mxPoint x="600" y="1090" as="sourcePoint" />
            <mxPoint x="600" y="1180" as="targetPoint" />
            <Array as="points" />
          </mxGeometry>
        </mxCell>
        <mxCell id="XyYknOsjrT319ukOHQHh-39" value="&lt;span style=&quot;font-family: &amp;quot;Times New Roman&amp;quot;; font-size: 9px; text-align: start; text-indent: 36px; text-wrap-mode: wrap;&quot;&gt;условия&amp;nbsp; проведения&lt;/span&gt;" style="edgeLabel;html=1;align=center;verticalAlign=middle;resizable=0;points=[];" vertex="1" connectable="0" parent="XyYknOsjrT319ukOHQHh-38">
          <mxGeometry x="0.1926" y="1" relative="1" as="geometry">
            <mxPoint as="offset" />
          </mxGeometry>
        </mxCell>
        <mxCell id="XyYknOsjrT319ukOHQHh-40" value="" style="endArrow=classic;html=1;rounded=0;" edge="1" parent="1">
          <mxGeometry width="50" height="50" relative="1" as="geometry">
            <mxPoint x="639.71" y="1090" as="sourcePoint" />
            <mxPoint x="639.47" y="1180" as="targetPoint" />
          </mxGeometry>
        </mxCell>
        <mxCell id="XyYknOsjrT319ukOHQHh-41" value="договор" style="edgeLabel;html=1;align=center;verticalAlign=middle;resizable=0;points=[];" vertex="1" connectable="0" parent="XyYknOsjrT319ukOHQHh-40">
          <mxGeometry x="-0.1524" relative="1" as="geometry">
            <mxPoint as="offset" />
          </mxGeometry>
        </mxCell>
        <mxCell id="XyYknOsjrT319ukOHQHh-42" value="" style="endArrow=classic;html=1;rounded=0;" edge="1" parent="1">
          <mxGeometry width="50" height="50" relative="1" as="geometry">
            <mxPoint x="679.19" y="1100" as="sourcePoint" />
            <mxPoint x="678.95" y="1190" as="targetPoint" />
          </mxGeometry>
        </mxCell>
        <mxCell id="XyYknOsjrT319ukOHQHh-43" value="&lt;span style=&quot;color: rgb(0, 0, 0); font-family: monospace; font-size: 0px; text-align: start; background-color: rgb(251, 251, 251);&quot;&gt;%3CmxGraphModel%3E%3Croot%3E%3CmxCell%20id%3D%220%22%2F%3E%3CmxCell%20id%3D%221%22%20parent%3D%220%22%2F%3E%3CmxCell%20id%3D%222%22%20value%3D%22%22%20style%3D%22endArrow%3Dclassic%3Bhtml%3D1%3Brounded%3D0%3B%22%20edge%3D%221%22%20parent%3D%221%22%3E%3CmxGeometry%20width%3D%2250%22%20height%3D%2250%22%20relative%3D%221%22%20as%3D%22geometry%22%3E%3CmxPoint%20x%3D%22410.07%22%20y%3D%22250%22%20as%3D%22sourcePoint%22%2F%3E%3CmxPoint%20x%3D%22409.83%22%20y%3D%22340%22%20as%3D%22targetPoint%22%2F%3E%3C%2FmxGeometry%3E%3C%2FmxCell%3E%3CmxCell%20id%3D%223%22%20value%3D%22%D0%B4%D0%BE%D0%B3%D0%BE%D0%B2%D0%BE%D1%80%22%20style%3D%22edgeLabel%3Bhtml%3D1%3Balign%3Dcenter%3BverticalAlign%3Dmiddle%3Bresizable%3D0%3Bpoints%3D%5B%5D%3B%22%20vertex%3D%221%22%20connectable%3D%220%22%20parent%3D%222%22%3E%3CmxGeometry%20x%3D%22-0.1524%22%20relative%3D%221%22%20as%3D%22geometry%22%3E%3CmxPoint%20as%3D%22offset%22%2F%3E%3C%2FmxGeometry%3E%3C%2FmxCell%3E%3C%2Froot%3E%3C%2FmxGraphModel%3E&lt;/span&gt;" style="edgeLabel;html=1;align=center;verticalAlign=middle;resizable=0;points=[];" vertex="1" connectable="0" parent="XyYknOsjrT319ukOHQHh-42">
          <mxGeometry x="-0.1524" relative="1" as="geometry">
            <mxPoint as="offset" />
          </mxGeometry>
        </mxCell>
        <mxCell id="XyYknOsjrT319ukOHQHh-44" value="&lt;span style=&quot;font-family: &amp;quot;Times New Roman&amp;quot;; text-align: start; text-indent: 36px; text-wrap-mode: wrap;&quot;&gt;&lt;font style=&quot;font-size: 10px;&quot;&gt;Права и обязанности организаторов&lt;/font&gt;&lt;/span&gt;" style="edgeLabel;html=1;align=center;verticalAlign=middle;resizable=0;points=[];" vertex="1" connectable="0" parent="XyYknOsjrT319ukOHQHh-42">
          <mxGeometry x="-0.1555" y="-1" relative="1" as="geometry">
            <mxPoint y="-28" as="offset" />
          </mxGeometry>
        </mxCell>
        <mxCell id="XyYknOsjrT319ukOHQHh-45" value="" style="endArrow=classic;html=1;rounded=0;entryX=0.417;entryY=0;entryDx=0;entryDy=0;entryPerimeter=0;" edge="1" parent="1" target="XyYknOsjrT319ukOHQHh-26">
          <mxGeometry width="50" height="50" relative="1" as="geometry">
            <mxPoint x="600" y="1170" as="sourcePoint" />
            <mxPoint x="735" y="1120" as="targetPoint" />
            <Array as="points">
              <mxPoint x="790" y="1170" />
            </Array>
          </mxGeometry>
        </mxCell>
        <mxCell id="XyYknOsjrT319ukOHQHh-46" value="правила" style="edgeLabel;html=1;align=center;verticalAlign=middle;resizable=0;points=[];" vertex="1" connectable="0" parent="XyYknOsjrT319ukOHQHh-45">
          <mxGeometry x="0.1961" y="1" relative="1" as="geometry">
            <mxPoint y="8" as="offset" />
          </mxGeometry>
        </mxCell>
        <mxCell id="XyYknOsjrT319ukOHQHh-47" value="" style="endArrow=classic;html=1;rounded=0;entryX=0;entryY=1;entryDx=0;entryDy=0;" edge="1" parent="1">
          <mxGeometry x="-0.001" width="50" height="50" relative="1" as="geometry">
            <mxPoint x="790" y="1520" as="sourcePoint" />
            <mxPoint x="790" y="1370" as="targetPoint" />
            <Array as="points">
              <mxPoint x="790" y="1410" />
            </Array>
            <mxPoint as="offset" />
          </mxGeometry>
        </mxCell>
        <mxCell id="XyYknOsjrT319ukOHQHh-48" value="оформляющий персонал" style="edgeLabel;html=1;align=center;verticalAlign=middle;resizable=0;points=[];" vertex="1" connectable="0" parent="XyYknOsjrT319ukOHQHh-47">
          <mxGeometry x="-0.0383" y="1" relative="1" as="geometry">
            <mxPoint as="offset" />
          </mxGeometry>
        </mxCell>
        <mxCell id="XyYknOsjrT319ukOHQHh-49" value="" style="endArrow=classic;html=1;rounded=0;" edge="1" parent="1">
          <mxGeometry width="50" height="50" relative="1" as="geometry">
            <mxPoint x="1020" y="1610" as="sourcePoint" />
            <mxPoint x="1020" y="1450" as="targetPoint" />
          </mxGeometry>
        </mxCell>
        <mxCell id="XyYknOsjrT319ukOHQHh-50" value="персонал" style="edgeLabel;html=1;align=center;verticalAlign=middle;resizable=0;points=[];" vertex="1" connectable="0" parent="XyYknOsjrT319ukOHQHh-49">
          <mxGeometry x="-0.375" y="1" relative="1" as="geometry">
            <mxPoint as="offset" />
          </mxGeometry>
        </mxCell>
        <mxCell id="XyYknOsjrT319ukOHQHh-51" value="" style="endArrow=classic;html=1;rounded=0;entryX=0.354;entryY=1;entryDx=0;entryDy=0;entryPerimeter=0;" edge="1" parent="1">
          <mxGeometry width="50" height="50" relative="1" as="geometry">
            <mxPoint x="1020" y="1510" as="sourcePoint" />
            <mxPoint x="612.4799999999999" y="1250" as="targetPoint" />
            <Array as="points">
              <mxPoint x="610" y="1510" />
            </Array>
          </mxGeometry>
        </mxCell>
        <mxCell id="XyYknOsjrT319ukOHQHh-52" value="менджеры" style="edgeLabel;html=1;align=center;verticalAlign=middle;resizable=0;points=[];" vertex="1" connectable="0" parent="XyYknOsjrT319ukOHQHh-51">
          <mxGeometry x="0.5055" y="1" relative="1" as="geometry">
            <mxPoint x="10" y="7" as="offset" />
          </mxGeometry>
        </mxCell>
        <mxCell id="XyYknOsjrT319ukOHQHh-53" style="edgeStyle=orthogonalEdgeStyle;rounded=0;orthogonalLoop=1;jettySize=auto;html=1;" edge="1" parent="1" source="XyYknOsjrT319ukOHQHh-56" target="XyYknOsjrT319ukOHQHh-87">
          <mxGeometry relative="1" as="geometry">
            <mxPoint x="2820" y="1120" as="targetPoint" />
          </mxGeometry>
        </mxCell>
        <mxCell id="XyYknOsjrT319ukOHQHh-54" style="edgeStyle=orthogonalEdgeStyle;rounded=0;orthogonalLoop=1;jettySize=auto;html=1;" edge="1" parent="1" source="XyYknOsjrT319ukOHQHh-56">
          <mxGeometry relative="1" as="geometry">
            <mxPoint x="2590" y="800" as="targetPoint" />
          </mxGeometry>
        </mxCell>
        <mxCell id="XyYknOsjrT319ukOHQHh-55" value="Запрос денежных средств" style="edgeLabel;html=1;align=center;verticalAlign=middle;resizable=0;points=[];" vertex="1" connectable="0" parent="XyYknOsjrT319ukOHQHh-54">
          <mxGeometry x="0.3219" y="2" relative="1" as="geometry">
            <mxPoint as="offset" />
          </mxGeometry>
        </mxCell>
        <mxCell id="XyYknOsjrT319ukOHQHh-56" value="" style="rounded=0;whiteSpace=wrap;html=1;" vertex="1" parent="1">
          <mxGeometry x="2530" y="1090" width="120" height="60" as="geometry" />
        </mxCell>
        <mxCell id="XyYknOsjrT319ukOHQHh-57" value="Организатор" style="text;html=1;align=center;verticalAlign=middle;whiteSpace=wrap;rounded=0;" vertex="1" parent="1">
          <mxGeometry x="2560" y="1105" width="60" height="30" as="geometry" />
        </mxCell>
        <mxCell id="XyYknOsjrT319ukOHQHh-58" style="edgeStyle=orthogonalEdgeStyle;rounded=0;orthogonalLoop=1;jettySize=auto;html=1;" edge="1" parent="1" source="XyYknOsjrT319ukOHQHh-62" target="XyYknOsjrT319ukOHQHh-65">
          <mxGeometry relative="1" as="geometry" />
        </mxCell>
        <mxCell id="XyYknOsjrT319ukOHQHh-59" value="заказ билета" style="edgeLabel;html=1;align=center;verticalAlign=middle;resizable=0;points=[];" vertex="1" connectable="0" parent="XyYknOsjrT319ukOHQHh-58">
          <mxGeometry x="-0.3035" y="2" relative="1" as="geometry">
            <mxPoint as="offset" />
          </mxGeometry>
        </mxCell>
        <mxCell id="XyYknOsjrT319ukOHQHh-60" style="edgeStyle=orthogonalEdgeStyle;rounded=0;orthogonalLoop=1;jettySize=auto;html=1;exitX=1;exitY=1;exitDx=0;exitDy=0;" edge="1" parent="1" source="XyYknOsjrT319ukOHQHh-62" target="XyYknOsjrT319ukOHQHh-79">
          <mxGeometry relative="1" as="geometry">
            <mxPoint x="3250" y="1540" as="targetPoint" />
          </mxGeometry>
        </mxCell>
        <mxCell id="XyYknOsjrT319ukOHQHh-61" value="Заявка" style="edgeLabel;html=1;align=center;verticalAlign=middle;resizable=0;points=[];" vertex="1" connectable="0" parent="XyYknOsjrT319ukOHQHh-60">
          <mxGeometry x="-0.5812" relative="1" as="geometry">
            <mxPoint as="offset" />
          </mxGeometry>
        </mxCell>
        <mxCell id="XyYknOsjrT319ukOHQHh-62" value="Целевая аудитория&amp;nbsp;" style="rounded=0;whiteSpace=wrap;html=1;" vertex="1" parent="1">
          <mxGeometry x="2530" y="1410" width="120" height="60" as="geometry" />
        </mxCell>
        <mxCell id="XyYknOsjrT319ukOHQHh-63" style="edgeStyle=orthogonalEdgeStyle;rounded=0;orthogonalLoop=1;jettySize=auto;html=1;" edge="1" parent="1" source="XyYknOsjrT319ukOHQHh-65">
          <mxGeometry relative="1" as="geometry">
            <mxPoint x="2970" y="1310" as="targetPoint" />
          </mxGeometry>
        </mxCell>
        <mxCell id="XyYknOsjrT319ukOHQHh-64" style="edgeStyle=orthogonalEdgeStyle;rounded=0;orthogonalLoop=1;jettySize=auto;html=1;" edge="1" parent="1" source="XyYknOsjrT319ukOHQHh-65">
          <mxGeometry relative="1" as="geometry">
            <mxPoint x="3357" y="1300" as="targetPoint" />
          </mxGeometry>
        </mxCell>
        <mxCell id="XyYknOsjrT319ukOHQHh-65" value="Проверка и внесение данных" style="rounded=1;whiteSpace=wrap;html=1;" vertex="1" parent="1">
          <mxGeometry x="2910" y="1410" width="120" height="60" as="geometry" />
        </mxCell>
        <mxCell id="XyYknOsjrT319ukOHQHh-66" value="" style="rounded=0;whiteSpace=wrap;html=1;" vertex="1" parent="1">
          <mxGeometry x="2084" y="1400" width="120" height="60" as="geometry" />
        </mxCell>
        <mxCell id="XyYknOsjrT319ukOHQHh-67" value="" style="endArrow=classic;html=1;rounded=0;" edge="1" parent="1">
          <mxGeometry width="50" height="50" relative="1" as="geometry">
            <mxPoint x="2930" y="1310" as="sourcePoint" />
            <mxPoint x="2930" y="1405" as="targetPoint" />
          </mxGeometry>
        </mxCell>
        <mxCell id="XyYknOsjrT319ukOHQHh-68" value="инф о клиентах" style="edgeLabel;html=1;align=center;verticalAlign=middle;resizable=0;points=[];" vertex="1" connectable="0" parent="XyYknOsjrT319ukOHQHh-67">
          <mxGeometry x="0.0737" y="2" relative="1" as="geometry">
            <mxPoint as="offset" />
          </mxGeometry>
        </mxCell>
        <mxCell id="XyYknOsjrT319ukOHQHh-69" value="" style="endArrow=none;html=1;rounded=0;" edge="1" parent="1">
          <mxGeometry width="50" height="50" relative="1" as="geometry">
            <mxPoint x="2911" y="1300" as="sourcePoint" />
            <mxPoint x="2911" y="1250" as="targetPoint" />
          </mxGeometry>
        </mxCell>
        <mxCell id="XyYknOsjrT319ukOHQHh-70" value="" style="endArrow=none;html=1;rounded=0;" edge="1" parent="1">
          <mxGeometry width="50" height="50" relative="1" as="geometry">
            <mxPoint x="2911" y="1300" as="sourcePoint" />
            <mxPoint x="3000" y="1300" as="targetPoint" />
          </mxGeometry>
        </mxCell>
        <mxCell id="XyYknOsjrT319ukOHQHh-71" value="" style="endArrow=none;html=1;rounded=0;" edge="1" parent="1">
          <mxGeometry width="50" height="50" relative="1" as="geometry">
            <mxPoint x="2911" y="1250" as="sourcePoint" />
            <mxPoint x="3000" y="1250" as="targetPoint" />
          </mxGeometry>
        </mxCell>
        <mxCell id="XyYknOsjrT319ukOHQHh-72" value="Хрананение&lt;div&gt;&lt;span style=&quot;background-color: transparent; color: light-dark(rgb(0, 0, 0), rgb(255, 255, 255));&quot;&gt;ID фанатов&lt;/span&gt;&lt;/div&gt;" style="text;html=1;align=center;verticalAlign=middle;resizable=0;points=[];autosize=1;strokeColor=none;fillColor=none;" vertex="1" parent="1">
          <mxGeometry x="2920" y="1250" width="90" height="40" as="geometry" />
        </mxCell>
        <mxCell id="XyYknOsjrT319ukOHQHh-73" value="" style="endArrow=none;html=1;rounded=0;" edge="1" parent="1">
          <mxGeometry width="50" height="50" relative="1" as="geometry">
            <mxPoint x="3301" y="1290" as="sourcePoint" />
            <mxPoint x="3301" y="1240" as="targetPoint" />
          </mxGeometry>
        </mxCell>
        <mxCell id="XyYknOsjrT319ukOHQHh-74" value="" style="endArrow=none;html=1;rounded=0;" edge="1" parent="1">
          <mxGeometry width="50" height="50" relative="1" as="geometry">
            <mxPoint x="3301" y="1290" as="sourcePoint" />
            <mxPoint x="3390" y="1290" as="targetPoint" />
          </mxGeometry>
        </mxCell>
        <mxCell id="XyYknOsjrT319ukOHQHh-75" value="" style="endArrow=none;html=1;rounded=0;" edge="1" parent="1">
          <mxGeometry width="50" height="50" relative="1" as="geometry">
            <mxPoint x="3301" y="1240" as="sourcePoint" />
            <mxPoint x="3390" y="1240" as="targetPoint" />
          </mxGeometry>
        </mxCell>
        <mxCell id="XyYknOsjrT319ukOHQHh-76" value="База билетов" style="text;html=1;align=center;verticalAlign=middle;resizable=0;points=[];autosize=1;strokeColor=none;fillColor=none;" vertex="1" parent="1">
          <mxGeometry x="3310" y="1250" width="100" height="30" as="geometry" />
        </mxCell>
        <mxCell id="XyYknOsjrT319ukOHQHh-77" style="edgeStyle=orthogonalEdgeStyle;rounded=0;orthogonalLoop=1;jettySize=auto;html=1;" edge="1" parent="1" source="XyYknOsjrT319ukOHQHh-79">
          <mxGeometry relative="1" as="geometry">
            <mxPoint x="3340" y="1290" as="targetPoint" />
          </mxGeometry>
        </mxCell>
        <mxCell id="XyYknOsjrT319ukOHQHh-78" value="Купленные билеты" style="edgeLabel;html=1;align=center;verticalAlign=middle;resizable=0;points=[];" vertex="1" connectable="0" parent="XyYknOsjrT319ukOHQHh-77">
          <mxGeometry x="-0.4688" relative="1" as="geometry">
            <mxPoint as="offset" />
          </mxGeometry>
        </mxCell>
        <mxCell id="XyYknOsjrT319ukOHQHh-79" value="Внесение инф&amp;nbsp;" style="rounded=1;whiteSpace=wrap;html=1;" vertex="1" parent="1">
          <mxGeometry x="3190" y="1510" width="120" height="60" as="geometry" />
        </mxCell>
        <mxCell id="XyYknOsjrT319ukOHQHh-80" style="edgeStyle=orthogonalEdgeStyle;rounded=0;orthogonalLoop=1;jettySize=auto;html=1;entryX=0.667;entryY=0;entryDx=0;entryDy=0;entryPerimeter=0;" edge="1" parent="1" source="XyYknOsjrT319ukOHQHh-72" target="XyYknOsjrT319ukOHQHh-79">
          <mxGeometry relative="1" as="geometry" />
        </mxCell>
        <mxCell id="XyYknOsjrT319ukOHQHh-81" value="необходимая информация о фанатах" style="edgeLabel;html=1;align=center;verticalAlign=middle;resizable=0;points=[];" vertex="1" connectable="0" parent="XyYknOsjrT319ukOHQHh-80">
          <mxGeometry x="-0.4039" relative="1" as="geometry">
            <mxPoint as="offset" />
          </mxGeometry>
        </mxCell>
        <mxCell id="XyYknOsjrT319ukOHQHh-82" value="" style="endArrow=none;html=1;rounded=0;" edge="1" parent="1">
          <mxGeometry width="50" height="50" relative="1" as="geometry">
            <mxPoint x="2830" y="980" as="sourcePoint" />
            <mxPoint x="2830" y="930" as="targetPoint" />
          </mxGeometry>
        </mxCell>
        <mxCell id="XyYknOsjrT319ukOHQHh-83" value="" style="endArrow=none;html=1;rounded=0;" edge="1" parent="1">
          <mxGeometry width="50" height="50" relative="1" as="geometry">
            <mxPoint x="2830" y="980" as="sourcePoint" />
            <mxPoint x="2919" y="980" as="targetPoint" />
          </mxGeometry>
        </mxCell>
        <mxCell id="XyYknOsjrT319ukOHQHh-84" value="" style="endArrow=none;html=1;rounded=0;" edge="1" parent="1">
          <mxGeometry width="50" height="50" relative="1" as="geometry">
            <mxPoint x="2830" y="930" as="sourcePoint" />
            <mxPoint x="2919" y="930" as="targetPoint" />
          </mxGeometry>
        </mxCell>
        <mxCell id="XyYknOsjrT319ukOHQHh-85" style="edgeStyle=orthogonalEdgeStyle;rounded=0;orthogonalLoop=1;jettySize=auto;html=1;entryX=0.5;entryY=0;entryDx=0;entryDy=0;" edge="1" parent="1" source="XyYknOsjrT319ukOHQHh-86" target="XyYknOsjrT319ukOHQHh-96">
          <mxGeometry relative="1" as="geometry" />
        </mxCell>
        <mxCell id="XyYknOsjrT319ukOHQHh-86" value="Места&amp;nbsp;&lt;div&gt;проведения&lt;/div&gt;" style="text;html=1;align=center;verticalAlign=middle;resizable=0;points=[];autosize=1;strokeColor=none;fillColor=none;" vertex="1" parent="1">
          <mxGeometry x="2830" y="930" width="90" height="40" as="geometry" />
        </mxCell>
        <mxCell id="XyYknOsjrT319ukOHQHh-87" value="Проверка" style="rounded=1;whiteSpace=wrap;html=1;" vertex="1" parent="1">
          <mxGeometry x="2850" y="1090" width="120" height="60" as="geometry" />
        </mxCell>
        <mxCell id="XyYknOsjrT319ukOHQHh-88" value="Подача&amp;nbsp;&lt;div&gt;заявки&amp;nbsp;&lt;/div&gt;&lt;div&gt;на&amp;nbsp;&lt;/div&gt;&lt;div&gt;проведения&lt;/div&gt;&lt;div&gt;&amp;nbsp;мероприятия&lt;/div&gt;" style="text;html=1;align=center;verticalAlign=middle;resizable=0;points=[];autosize=1;strokeColor=none;fillColor=none;" vertex="1" parent="1">
          <mxGeometry x="2690" y="1030" width="100" height="90" as="geometry" />
        </mxCell>
        <mxCell id="XyYknOsjrT319ukOHQHh-89" value="" style="endArrow=classic;html=1;rounded=0;" edge="1" parent="1">
          <mxGeometry width="50" height="50" relative="1" as="geometry">
            <mxPoint x="2870" y="980" as="sourcePoint" />
            <mxPoint x="2870" y="1090" as="targetPoint" />
          </mxGeometry>
        </mxCell>
        <mxCell id="XyYknOsjrT319ukOHQHh-90" value="Инф о местах" style="edgeLabel;html=1;align=center;verticalAlign=middle;resizable=0;points=[];" vertex="1" connectable="0" parent="XyYknOsjrT319ukOHQHh-89">
          <mxGeometry x="-0.3143" y="1" relative="1" as="geometry">
            <mxPoint as="offset" />
          </mxGeometry>
        </mxCell>
        <mxCell id="XyYknOsjrT319ukOHQHh-91" value="" style="endArrow=classic;html=1;rounded=0;exitX=0.5;exitY=0;exitDx=0;exitDy=0;" edge="1" parent="1" source="XyYknOsjrT319ukOHQHh-87">
          <mxGeometry width="50" height="50" relative="1" as="geometry">
            <mxPoint x="2909.71" y="1080" as="sourcePoint" />
            <mxPoint x="2909.71" y="980" as="targetPoint" />
          </mxGeometry>
        </mxCell>
        <mxCell id="XyYknOsjrT319ukOHQHh-92" value="" style="endArrow=classic;html=1;rounded=0;" edge="1" parent="1">
          <mxGeometry width="50" height="50" relative="1" as="geometry">
            <mxPoint x="2620" y="1149" as="sourcePoint" />
            <mxPoint x="3070" y="1180" as="targetPoint" />
            <Array as="points">
              <mxPoint x="2620" y="1180" />
              <mxPoint x="2910" y="1180" />
            </Array>
          </mxGeometry>
        </mxCell>
        <mxCell id="XyYknOsjrT319ukOHQHh-93" value="Заявка" style="edgeLabel;html=1;align=center;verticalAlign=middle;resizable=0;points=[];" vertex="1" connectable="0" parent="XyYknOsjrT319ukOHQHh-92">
          <mxGeometry x="-0.4657" y="1" relative="1" as="geometry">
            <mxPoint as="offset" />
          </mxGeometry>
        </mxCell>
        <mxCell id="XyYknOsjrT319ukOHQHh-94" style="edgeStyle=orthogonalEdgeStyle;rounded=0;orthogonalLoop=1;jettySize=auto;html=1;" edge="1" parent="1" source="XyYknOsjrT319ukOHQHh-96">
          <mxGeometry relative="1" as="geometry">
            <mxPoint x="3330" y="1000" as="targetPoint" />
          </mxGeometry>
        </mxCell>
        <mxCell id="XyYknOsjrT319ukOHQHh-95" value="согласование" style="edgeLabel;html=1;align=center;verticalAlign=middle;resizable=0;points=[];" vertex="1" connectable="0" parent="XyYknOsjrT319ukOHQHh-94">
          <mxGeometry x="0.2866" y="2" relative="1" as="geometry">
            <mxPoint as="offset" />
          </mxGeometry>
        </mxCell>
        <mxCell id="XyYknOsjrT319ukOHQHh-96" value="Оформление места проведения&amp;nbsp;" style="rounded=1;whiteSpace=wrap;html=1;" vertex="1" parent="1">
          <mxGeometry x="3070" y="1150" width="120" height="60" as="geometry" />
        </mxCell>
        <mxCell id="XyYknOsjrT319ukOHQHh-97" value="Информация о конкретном месте&amp;nbsp;" style="text;html=1;align=center;verticalAlign=middle;resizable=0;points=[];autosize=1;strokeColor=none;fillColor=none;" vertex="1" parent="1">
          <mxGeometry x="2960" y="900" width="210" height="30" as="geometry" />
        </mxCell>
        <mxCell id="XyYknOsjrT319ukOHQHh-98" value="" style="endArrow=none;html=1;rounded=0;" edge="1" parent="1">
          <mxGeometry width="50" height="50" relative="1" as="geometry">
            <mxPoint x="3290" y="990" as="sourcePoint" />
            <mxPoint x="3290" y="940" as="targetPoint" />
          </mxGeometry>
        </mxCell>
        <mxCell id="XyYknOsjrT319ukOHQHh-99" value="" style="endArrow=none;html=1;rounded=0;" edge="1" parent="1">
          <mxGeometry width="50" height="50" relative="1" as="geometry">
            <mxPoint x="3290" y="990" as="sourcePoint" />
            <mxPoint x="3379" y="990" as="targetPoint" />
          </mxGeometry>
        </mxCell>
        <mxCell id="XyYknOsjrT319ukOHQHh-100" value="" style="endArrow=none;html=1;rounded=0;" edge="1" parent="1">
          <mxGeometry width="50" height="50" relative="1" as="geometry">
            <mxPoint x="3290" y="940" as="sourcePoint" />
            <mxPoint x="3379" y="940" as="targetPoint" />
          </mxGeometry>
        </mxCell>
        <mxCell id="XyYknOsjrT319ukOHQHh-101" value="Место&lt;div&gt;&amp;nbsp;проведения&lt;/div&gt;" style="text;html=1;align=center;verticalAlign=middle;resizable=0;points=[];autosize=1;strokeColor=none;fillColor=none;" vertex="1" parent="1">
          <mxGeometry x="3290" y="945" width="90" height="40" as="geometry" />
        </mxCell>
        <mxCell id="XyYknOsjrT319ukOHQHh-102" style="edgeStyle=orthogonalEdgeStyle;rounded=0;orthogonalLoop=1;jettySize=auto;html=1;" edge="1" parent="1">
          <mxGeometry relative="1" as="geometry">
            <mxPoint x="2610" y="620" as="targetPoint" />
            <mxPoint x="2610" y="740" as="sourcePoint" />
          </mxGeometry>
        </mxCell>
        <mxCell id="XyYknOsjrT319ukOHQHh-103" style="edgeStyle=orthogonalEdgeStyle;rounded=0;orthogonalLoop=1;jettySize=auto;html=1;" edge="1" parent="1" source="XyYknOsjrT319ukOHQHh-105" target="XyYknOsjrT319ukOHQHh-114">
          <mxGeometry relative="1" as="geometry">
            <mxPoint x="3020" y="770" as="targetPoint" />
          </mxGeometry>
        </mxCell>
        <mxCell id="XyYknOsjrT319ukOHQHh-104" value="запрос" style="edgeLabel;html=1;align=center;verticalAlign=middle;resizable=0;points=[];" vertex="1" connectable="0" parent="XyYknOsjrT319ukOHQHh-103">
          <mxGeometry x="-0.0986" y="-2" relative="1" as="geometry">
            <mxPoint as="offset" />
          </mxGeometry>
        </mxCell>
        <mxCell id="XyYknOsjrT319ukOHQHh-105" value="Проверка инф о спонсорах" style="rounded=1;whiteSpace=wrap;html=1;" vertex="1" parent="1">
          <mxGeometry x="2530" y="740" width="120" height="60" as="geometry" />
        </mxCell>
        <mxCell id="XyYknOsjrT319ukOHQHh-106" value="" style="endArrow=none;html=1;rounded=0;" edge="1" parent="1">
          <mxGeometry width="50" height="50" relative="1" as="geometry">
            <mxPoint x="2551" y="620" as="sourcePoint" />
            <mxPoint x="2551" y="570" as="targetPoint" />
          </mxGeometry>
        </mxCell>
        <mxCell id="XyYknOsjrT319ukOHQHh-107" value="" style="endArrow=none;html=1;rounded=0;" edge="1" parent="1">
          <mxGeometry width="50" height="50" relative="1" as="geometry">
            <mxPoint x="2551" y="620" as="sourcePoint" />
            <mxPoint x="2640" y="620" as="targetPoint" />
          </mxGeometry>
        </mxCell>
        <mxCell id="XyYknOsjrT319ukOHQHh-108" value="" style="endArrow=none;html=1;rounded=0;" edge="1" parent="1">
          <mxGeometry width="50" height="50" relative="1" as="geometry">
            <mxPoint x="2551" y="570" as="sourcePoint" />
            <mxPoint x="2640" y="570" as="targetPoint" />
          </mxGeometry>
        </mxCell>
        <mxCell id="XyYknOsjrT319ukOHQHh-109" value="Спонсорская&lt;div&gt;база&lt;/div&gt;" style="text;html=1;align=center;verticalAlign=middle;resizable=0;points=[];autosize=1;strokeColor=none;fillColor=none;" vertex="1" parent="1">
          <mxGeometry x="2560" y="570" width="100" height="40" as="geometry" />
        </mxCell>
        <mxCell id="XyYknOsjrT319ukOHQHh-110" value="" style="endArrow=classic;html=1;rounded=0;entryX=0.25;entryY=0;entryDx=0;entryDy=0;" edge="1" parent="1" target="XyYknOsjrT319ukOHQHh-105">
          <mxGeometry width="50" height="50" relative="1" as="geometry">
            <mxPoint x="2560" y="620" as="sourcePoint" />
            <mxPoint x="2730" y="690" as="targetPoint" />
          </mxGeometry>
        </mxCell>
        <mxCell id="XyYknOsjrT319ukOHQHh-111" value="Инф о спонсорах" style="text;html=1;align=center;verticalAlign=middle;resizable=0;points=[];autosize=1;strokeColor=none;fillColor=none;" vertex="1" parent="1">
          <mxGeometry x="2570" y="658" width="120" height="30" as="geometry" />
        </mxCell>
        <mxCell id="XyYknOsjrT319ukOHQHh-112" style="edgeStyle=orthogonalEdgeStyle;rounded=0;orthogonalLoop=1;jettySize=auto;html=1;" edge="1" parent="1" source="XyYknOsjrT319ukOHQHh-114">
          <mxGeometry relative="1" as="geometry">
            <mxPoint x="3340" y="940" as="targetPoint" />
          </mxGeometry>
        </mxCell>
        <mxCell id="XyYknOsjrT319ukOHQHh-113" value="Согласование" style="edgeLabel;html=1;align=center;verticalAlign=middle;resizable=0;points=[];" vertex="1" connectable="0" parent="XyYknOsjrT319ukOHQHh-112">
          <mxGeometry x="-0.2996" relative="1" as="geometry">
            <mxPoint as="offset" />
          </mxGeometry>
        </mxCell>
        <mxCell id="XyYknOsjrT319ukOHQHh-114" value="внесение денежных&lt;div&gt;средств&lt;/div&gt;" style="rounded=1;whiteSpace=wrap;html=1;" vertex="1" parent="1">
          <mxGeometry x="3005" y="740" width="120" height="60" as="geometry" />
        </mxCell>
        <mxCell id="XyYknOsjrT319ukOHQHh-115" value="" style="endArrow=classic;html=1;rounded=0;entryX=0.538;entryY=0.022;entryDx=0;entryDy=0;entryPerimeter=0;" edge="1" parent="1" target="XyYknOsjrT319ukOHQHh-114">
          <mxGeometry width="50" height="50" relative="1" as="geometry">
            <mxPoint x="2630" y="620" as="sourcePoint" />
            <mxPoint x="3080" y="620" as="targetPoint" />
            <Array as="points">
              <mxPoint x="2630" y="660" />
              <mxPoint x="3070" y="660" />
            </Array>
          </mxGeometry>
        </mxCell>
        <mxCell id="XyYknOsjrT319ukOHQHh-116" value="Выделение денежных средств&amp;nbsp;" style="edgeLabel;html=1;align=center;verticalAlign=middle;resizable=0;points=[];" vertex="1" connectable="0" parent="XyYknOsjrT319ukOHQHh-115">
          <mxGeometry x="-0.1171" y="-2" relative="1" as="geometry">
            <mxPoint as="offset" />
          </mxGeometry>
        </mxCell>
        <mxCell id="XyYknOsjrT319ukOHQHh-117" value="4" style="text;html=1;align=center;verticalAlign=middle;whiteSpace=wrap;rounded=0;" vertex="1" parent="1">
          <mxGeometry x="2910" y="1262.5" width="20" height="15" as="geometry" />
        </mxCell>
        <mxCell id="XyYknOsjrT319ukOHQHh-118" value="3" style="text;html=1;align=center;verticalAlign=middle;whiteSpace=wrap;rounded=0;" vertex="1" parent="1">
          <mxGeometry x="2530" y="1410" width="20" height="15" as="geometry" />
        </mxCell>
        <mxCell id="XyYknOsjrT319ukOHQHh-119" value="5" style="text;html=1;align=center;verticalAlign=middle;whiteSpace=wrap;rounded=0;" vertex="1" parent="1">
          <mxGeometry x="3010" y="1450" width="20" height="15" as="geometry" />
        </mxCell>
        <mxCell id="XyYknOsjrT319ukOHQHh-120" value="6" style="text;html=1;align=center;verticalAlign=middle;whiteSpace=wrap;rounded=0;" vertex="1" parent="1">
          <mxGeometry x="3290" y="1555" width="20" height="15" as="geometry" />
        </mxCell>
        <mxCell id="XyYknOsjrT319ukOHQHh-121" value="5" style="text;html=1;align=center;verticalAlign=middle;whiteSpace=wrap;rounded=0;" vertex="1" parent="1">
          <mxGeometry x="3300" y="1257.5" width="20" height="15" as="geometry" />
        </mxCell>
        <mxCell id="XyYknOsjrT319ukOHQHh-122" value="1" style="text;html=1;align=center;verticalAlign=middle;whiteSpace=wrap;rounded=0;" vertex="1" parent="1">
          <mxGeometry x="2530" y="1090" width="20" height="15" as="geometry" />
        </mxCell>
        <mxCell id="XyYknOsjrT319ukOHQHh-123" value="1" style="text;html=1;align=center;verticalAlign=middle;whiteSpace=wrap;rounded=0;" vertex="1" parent="1">
          <mxGeometry x="2550" y="590" width="20" height="15" as="geometry" />
        </mxCell>
        <mxCell id="XyYknOsjrT319ukOHQHh-124" value="1" style="text;html=1;align=center;verticalAlign=middle;whiteSpace=wrap;rounded=0;" vertex="1" parent="1">
          <mxGeometry x="3105" y="780" width="20" height="15" as="geometry" />
        </mxCell>
        <mxCell id="XyYknOsjrT319ukOHQHh-125" value="2" style="text;html=1;align=center;verticalAlign=middle;whiteSpace=wrap;rounded=0;" vertex="1" parent="1">
          <mxGeometry x="3290" y="942.5" width="20" height="15" as="geometry" />
        </mxCell>
        <mxCell id="XyYknOsjrT319ukOHQHh-126" value="3" style="text;html=1;align=center;verticalAlign=middle;whiteSpace=wrap;rounded=0;" vertex="1" parent="1">
          <mxGeometry x="2830" y="930" width="20" height="15" as="geometry" />
        </mxCell>
        <mxCell id="XyYknOsjrT319ukOHQHh-127" value="2" style="text;html=1;align=center;verticalAlign=middle;whiteSpace=wrap;rounded=0;" vertex="1" parent="1">
          <mxGeometry x="3170" y="1195" width="20" height="15" as="geometry" />
        </mxCell>
        <mxCell id="XyYknOsjrT319ukOHQHh-128" value="3" style="text;html=1;align=center;verticalAlign=middle;whiteSpace=wrap;rounded=0;" vertex="1" parent="1">
          <mxGeometry x="2950" y="1135" width="20" height="15" as="geometry" />
        </mxCell>
        <mxCell id="XyYknOsjrT319ukOHQHh-129" value="4" style="text;html=1;align=center;verticalAlign=middle;whiteSpace=wrap;rounded=0;" vertex="1" parent="1">
          <mxGeometry x="2630" y="785" width="20" height="15" as="geometry" />
        </mxCell>
        <mxCell id="XyYknOsjrT319ukOHQHh-130" value="A0" style="text;html=1;align=center;verticalAlign=middle;whiteSpace=wrap;rounded=0;" vertex="1" parent="1">
          <mxGeometry x="384" y="400" width="60" height="30" as="geometry" />
        </mxCell>
        <mxCell id="XyYknOsjrT319ukOHQHh-131" value="" style="endArrow=classic;html=1;rounded=0;" edge="1" parent="1">
          <mxGeometry width="50" height="50" relative="1" as="geometry">
            <mxPoint x="140" y="310" as="sourcePoint" />
            <mxPoint x="270" y="310" as="targetPoint" />
          </mxGeometry>
        </mxCell>
        <mxCell id="XyYknOsjrT319ukOHQHh-132" value="Заявки абонентов" style="edgeLabel;html=1;align=center;verticalAlign=middle;resizable=0;points=[];" vertex="1" connectable="0" parent="XyYknOsjrT319ukOHQHh-131">
          <mxGeometry x="-0.358" y="2" relative="1" as="geometry">
            <mxPoint x="18" as="offset" />
          </mxGeometry>
        </mxCell>
        <mxCell id="XyYknOsjrT319ukOHQHh-133" value="" style="endArrow=classic;html=1;rounded=0;" edge="1" parent="1">
          <mxGeometry width="50" height="50" relative="1" as="geometry">
            <mxPoint x="140" y="340" as="sourcePoint" />
            <mxPoint x="270" y="340" as="targetPoint" />
          </mxGeometry>
        </mxCell>
        <mxCell id="XyYknOsjrT319ukOHQHh-134" value="данные клиентов" style="edgeLabel;html=1;align=center;verticalAlign=middle;resizable=0;points=[];" vertex="1" connectable="0" parent="XyYknOsjrT319ukOHQHh-133">
          <mxGeometry x="-0.358" y="2" relative="1" as="geometry">
            <mxPoint x="18" as="offset" />
          </mxGeometry>
        </mxCell>
        <mxCell id="XyYknOsjrT319ukOHQHh-135" value="" style="endArrow=classic;html=1;rounded=0;" edge="1" parent="1">
          <mxGeometry width="50" height="50" relative="1" as="geometry">
            <mxPoint x="140" y="370" as="sourcePoint" />
            <mxPoint x="270" y="370" as="targetPoint" />
          </mxGeometry>
        </mxCell>
        <mxCell id="XyYknOsjrT319ukOHQHh-136" value="тарифные планы" style="edgeLabel;html=1;align=center;verticalAlign=middle;resizable=0;points=[];" vertex="1" connectable="0" parent="XyYknOsjrT319ukOHQHh-135">
          <mxGeometry x="-0.358" y="2" relative="1" as="geometry">
            <mxPoint x="18" as="offset" />
          </mxGeometry>
        </mxCell>
        <mxCell id="XyYknOsjrT319ukOHQHh-138" value="" style="endArrow=classic;html=1;rounded=0;" edge="1" parent="1">
          <mxGeometry width="50" height="50" relative="1" as="geometry">
            <mxPoint x="140" y="400" as="sourcePoint" />
            <mxPoint x="270" y="400" as="targetPoint" />
          </mxGeometry>
        </mxCell>
        <mxCell id="XyYknOsjrT319ukOHQHh-139" value="платежи" style="edgeLabel;html=1;align=center;verticalAlign=middle;resizable=0;points=[];" vertex="1" connectable="0" parent="XyYknOsjrT319ukOHQHh-138">
          <mxGeometry x="-0.358" y="2" relative="1" as="geometry">
            <mxPoint x="18" as="offset" />
          </mxGeometry>
        </mxCell>
        <mxCell id="XyYknOsjrT319ukOHQHh-140" value="" style="endArrow=classic;html=1;rounded=0;" edge="1" parent="1">
          <mxGeometry width="50" height="50" relative="1" as="geometry">
            <mxPoint x="140" y="430" as="sourcePoint" />
            <mxPoint x="270" y="430" as="targetPoint" />
          </mxGeometry>
        </mxCell>
        <mxCell id="XyYknOsjrT319ukOHQHh-141" value="мониторинг сети" style="edgeLabel;html=1;align=center;verticalAlign=middle;resizable=0;points=[];" vertex="1" connectable="0" parent="XyYknOsjrT319ukOHQHh-140">
          <mxGeometry x="-0.358" y="2" relative="1" as="geometry">
            <mxPoint x="18" as="offset" />
          </mxGeometry>
        </mxCell>
        <mxCell id="XyYknOsjrT319ukOHQHh-142" value="" style="endArrow=classic;html=1;rounded=0;" edge="1" parent="1">
          <mxGeometry width="50" height="50" relative="1" as="geometry">
            <mxPoint x="310" y="190" as="sourcePoint" />
            <mxPoint x="310" y="290" as="targetPoint" />
          </mxGeometry>
        </mxCell>
        <mxCell id="XyYknOsjrT319ukOHQHh-143" value="Политика провайдера" style="edgeLabel;html=1;align=center;verticalAlign=middle;resizable=0;points=[];rotation=-90;" vertex="1" connectable="0" parent="XyYknOsjrT319ukOHQHh-142">
          <mxGeometry x="-0.358" y="2" relative="1" as="geometry">
            <mxPoint x="-2" y="-12" as="offset" />
          </mxGeometry>
        </mxCell>
        <mxCell id="XyYknOsjrT319ukOHQHh-144" value="" style="endArrow=classic;html=1;rounded=0;" edge="1" parent="1">
          <mxGeometry width="50" height="50" relative="1" as="geometry">
            <mxPoint x="410" y="190" as="sourcePoint" />
            <mxPoint x="410" y="290" as="targetPoint" />
          </mxGeometry>
        </mxCell>
        <mxCell id="XyYknOsjrT319ukOHQHh-145" value="Законы и стандарты" style="edgeLabel;html=1;align=center;verticalAlign=middle;resizable=0;points=[];rotation=-90;" vertex="1" connectable="0" parent="XyYknOsjrT319ukOHQHh-144">
          <mxGeometry x="-0.358" y="2" relative="1" as="geometry">
            <mxPoint x="-2" y="-12" as="offset" />
          </mxGeometry>
        </mxCell>
        <mxCell id="XyYknOsjrT319ukOHQHh-146" value="" style="endArrow=classic;html=1;rounded=0;" edge="1" parent="1">
          <mxGeometry width="50" height="50" relative="1" as="geometry">
            <mxPoint x="310" y="580" as="sourcePoint" />
            <mxPoint x="310" y="450" as="targetPoint" />
          </mxGeometry>
        </mxCell>
        <mxCell id="XyYknOsjrT319ukOHQHh-147" value="СУБД" style="edgeLabel;html=1;align=center;verticalAlign=middle;resizable=0;points=[];rotation=-90;" vertex="1" connectable="0" parent="XyYknOsjrT319ukOHQHh-146">
          <mxGeometry x="-0.358" y="2" relative="1" as="geometry">
            <mxPoint x="2" y="-18" as="offset" />
          </mxGeometry>
        </mxCell>
        <mxCell id="XyYknOsjrT319ukOHQHh-148" value="" style="endArrow=classic;html=1;rounded=0;" edge="1" parent="1">
          <mxGeometry width="50" height="50" relative="1" as="geometry">
            <mxPoint x="340" y="580" as="sourcePoint" />
            <mxPoint x="340" y="450" as="targetPoint" />
          </mxGeometry>
        </mxCell>
        <mxCell id="XyYknOsjrT319ukOHQHh-149" value="Серверное ПО" style="edgeLabel;html=1;align=center;verticalAlign=middle;resizable=0;points=[];rotation=-90;" vertex="1" connectable="0" parent="XyYknOsjrT319ukOHQHh-148">
          <mxGeometry x="-0.358" y="2" relative="1" as="geometry">
            <mxPoint x="2" y="-18" as="offset" />
          </mxGeometry>
        </mxCell>
        <mxCell id="XyYknOsjrT319ukOHQHh-150" value="" style="endArrow=classic;html=1;rounded=0;" edge="1" parent="1">
          <mxGeometry width="50" height="50" relative="1" as="geometry">
            <mxPoint x="370" y="580" as="sourcePoint" />
            <mxPoint x="370" y="450" as="targetPoint" />
          </mxGeometry>
        </mxCell>
        <mxCell id="XyYknOsjrT319ukOHQHh-151" value="Веб-интерфейс" style="edgeLabel;html=1;align=center;verticalAlign=middle;resizable=0;points=[];rotation=-90;" vertex="1" connectable="0" parent="XyYknOsjrT319ukOHQHh-150">
          <mxGeometry x="-0.358" y="2" relative="1" as="geometry">
            <mxPoint x="2" y="-18" as="offset" />
          </mxGeometry>
        </mxCell>
        <mxCell id="XyYknOsjrT319ukOHQHh-152" value="" style="endArrow=classic;html=1;rounded=0;" edge="1" parent="1">
          <mxGeometry width="50" height="50" relative="1" as="geometry">
            <mxPoint x="400" y="580" as="sourcePoint" />
            <mxPoint x="400" y="450" as="targetPoint" />
          </mxGeometry>
        </mxCell>
        <mxCell id="XyYknOsjrT319ukOHQHh-153" value="Внешние API" style="edgeLabel;html=1;align=center;verticalAlign=middle;resizable=0;points=[];rotation=-90;" vertex="1" connectable="0" parent="XyYknOsjrT319ukOHQHh-152">
          <mxGeometry x="-0.358" y="2" relative="1" as="geometry">
            <mxPoint x="2" y="-18" as="offset" />
          </mxGeometry>
        </mxCell>
        <mxCell id="XyYknOsjrT319ukOHQHh-154" value="" style="endArrow=classic;html=1;rounded=0;" edge="1" parent="1">
          <mxGeometry width="50" height="50" relative="1" as="geometry">
            <mxPoint x="450" y="320" as="sourcePoint" />
            <mxPoint x="600" y="320" as="targetPoint" />
          </mxGeometry>
        </mxCell>
        <mxCell id="XyYknOsjrT319ukOHQHh-155" value="Подключенные услуги" style="edgeLabel;html=1;align=center;verticalAlign=middle;resizable=0;points=[];" vertex="1" connectable="0" parent="XyYknOsjrT319ukOHQHh-154">
          <mxGeometry x="-0.358" y="2" relative="1" as="geometry">
            <mxPoint x="18" as="offset" />
          </mxGeometry>
        </mxCell>
        <mxCell id="XyYknOsjrT319ukOHQHh-156" value="" style="endArrow=classic;html=1;rounded=0;" edge="1" parent="1">
          <mxGeometry width="50" height="50" relative="1" as="geometry">
            <mxPoint x="450" y="350" as="sourcePoint" />
            <mxPoint x="600" y="350" as="targetPoint" />
          </mxGeometry>
        </mxCell>
        <mxCell id="XyYknOsjrT319ukOHQHh-157" value="Финансовые отчетности" style="edgeLabel;html=1;align=center;verticalAlign=middle;resizable=0;points=[];" vertex="1" connectable="0" parent="XyYknOsjrT319ukOHQHh-156">
          <mxGeometry x="-0.358" y="2" relative="1" as="geometry">
            <mxPoint x="18" as="offset" />
          </mxGeometry>
        </mxCell>
        <mxCell id="XyYknOsjrT319ukOHQHh-158" value="" style="endArrow=classic;html=1;rounded=0;" edge="1" parent="1">
          <mxGeometry width="50" height="50" relative="1" as="geometry">
            <mxPoint x="450" y="390" as="sourcePoint" />
            <mxPoint x="600" y="390" as="targetPoint" />
          </mxGeometry>
        </mxCell>
        <mxCell id="XyYknOsjrT319ukOHQHh-159" value="Уведомление клинтов" style="edgeLabel;html=1;align=center;verticalAlign=middle;resizable=0;points=[];" vertex="1" connectable="0" parent="XyYknOsjrT319ukOHQHh-158">
          <mxGeometry x="-0.358" y="2" relative="1" as="geometry">
            <mxPoint x="18" as="offset" />
          </mxGeometry>
        </mxCell>
        <mxCell id="XyYknOsjrT319ukOHQHh-160" value="" style="endArrow=classic;html=1;rounded=0;" edge="1" parent="1">
          <mxGeometry width="50" height="50" relative="1" as="geometry">
            <mxPoint x="450" y="420" as="sourcePoint" />
            <mxPoint x="600" y="420" as="targetPoint" />
          </mxGeometry>
        </mxCell>
        <mxCell id="XyYknOsjrT319ukOHQHh-161" value="Аналитика" style="edgeLabel;html=1;align=center;verticalAlign=middle;resizable=0;points=[];" vertex="1" connectable="0" parent="XyYknOsjrT319ukOHQHh-160">
          <mxGeometry x="-0.358" y="2" relative="1" as="geometry">
            <mxPoint x="18" as="offset" />
          </mxGeometry>
        </mxCell>
      </root>
    </mxGraphModel>
  </diagram>
</mxfile>
